<?xml version="1.0" standalone="no"?>
<!DOCTYPE svg PUBLIC "-//W3C//DTD SVG 1.1//EN" "http://www.w3.org/Graphics/SVG/1.1/DTD/svg11.dtd" >
<!--
2013-9-30: Created.
-->
<svg>
<metadata>
Created by iconfont
</metadata>
<defs>

<font id="iconfont" horiz-adv-x="1024" >
  <font-face
    font-family="iconfont"
    font-weight="500"
    font-stretch="normal"
    units-per-em="1024"
    ascent="896"
    descent="-128"
  />
    <missing-glyph />
    
    <glyph glyph-name="icon--" unicode="&#59159;" d="M627.2 407.04l-197.12 197.12c-10.24 10.24-25.6 10.24-35.84 0-10.24-10.24-10.24-25.6 0-35.84l181.76-181.76-181.76-181.76c-10.24-10.24-10.24-25.6 0-35.84 10.24-10.24 25.6-10.24 35.84 0l197.12 197.12c5.12 5.12 7.68 15.36 7.68 23.04 2.56 2.56 0 10.24-7.68 17.92zM512 793.6C286.72 793.6 102.4 609.28 102.4 384s184.32-409.6 409.6-409.6 409.6 184.32 409.6 409.6S737.28 793.6 512 793.6z m0-768c-197.12 0-358.4 161.28-358.4 358.4S314.88 742.4 512 742.4s358.4-161.28 358.4-358.4-161.28-358.4-358.4-358.4z"  horiz-adv-x="1024" />

    
    <glyph glyph-name="shipin" unicode="&#59225;" d="M512 156.444444c-108.088889 0-199.111111 91.022222-199.111111 199.111112S403.911111 554.666667 512 554.666667s199.111111-91.022222 199.111111-199.111111S620.088889 156.444444 512 156.444444z m0 341.333334C432.355556 497.777778 369.777778 435.2 369.777778 355.555556S432.355556 213.333333 512 213.333333s142.222222 62.577778 142.222222 142.222223S591.644444 497.777778 512 497.777778zM512 668.444444m-56.888889 0a56.888889 56.888889 0 1 1 113.777778 0 56.888889 56.888889 0 1 1-113.777778 0ZM722.488889 71.111111c130.844444 73.955556 216.177778 210.488889 216.177778 369.777778C938.666667 674.133333 745.244444 867.555556 512 867.555556S85.333333 674.133333 85.333333 440.888889c0-159.288889 85.333333-295.822222 216.177778-369.777778-11.377778-28.444444-17.066667-56.888889-17.066667-85.333333H170.666667v-56.888889h682.666666v56.888889h-113.777777c0 28.444444-5.688889 56.888889-17.066667 85.333333zM142.222222 440.888889c0 204.8 164.977778 369.777778 369.777778 369.777778s369.777778-164.977778 369.777778-369.777778-164.977778-369.777778-369.777778-369.777778S142.222222 236.088889 142.222222 440.888889zM341.333333-14.222222c0 22.755556 5.688889 39.822222 11.377778 56.888889 51.2-17.066667 102.4-28.444444 159.288889-28.444445 56.888889 0 108.088889 11.377778 159.288889 28.444445 5.688889-17.066667 11.377778-39.822222 11.377778-56.888889H341.333333z"  horiz-adv-x="1024" />

    
    <glyph glyph-name="ziyuan48ldpi" unicode="&#58882;" d="M362.970084 462.469223l-70.83364 19.833419c-13.316724-48.45021-26.06678-94.067074-38.5335-139.967272-15.300066-55.250239-43.916857-69.983636-97.750423-51.000221A215.900935 215.900935 0 0 0 26.651962 555.686293C49.885396 644.93668 75.102171 733.620397 100.602282 822.304114A95.483747 95.483747 0 0 0 216.769451 893.137754c19.26675-3.683349 37.400162-8.783371 56.666912-13.316724 81.600353-20.683423 102.000442-49.583548 93.78374-135.717254 11.616717-3.966684 23.800103-8.783371 36.550158-11.900052L821.405402 623.686588c69.133633-17.850077 83.300361-43.066853 63.750276-113.333824-8.500037-30.033463-16.433404-60.066927-24.650106-90.10039-16.433404-59.500258-43.350188-75.083658-103.700449-59.216923l-198.334192 51.850224c6.23336-25.783445 11.333382-47.600206 16.433404-69.133633 23.800103-95.767081 48.166875-191.250828 70.550306-287.017909 5.383357-22.38343 15.016732-30.883467 37.966831-28.333456a591.602561 591.602561 0 0 0 77.633669 0 59.783592 59.783592 0 0 0 6.80003-119.000515 179.067442 179.067442 0 0 0-37.116828-3.11668H179.935959c-56.666912 0-86.98371 20.683423-87.550379 61.483599s28.333456 61.4836 85.000368 61.766934c78.200339 0 78.483673 0 97.467088 75.933662Q318.203224 272.351733 358.436731 438.66912c2.833346 7.083364 3.11668 14.166728 4.533353 23.800103z m408.568436-500.085498v11.050047a190.967493 190.967493 0 0 1-30.883467 5.666692 772.93668 772.93668 0 0 1-81.033684 0c-31.733471-2.266676-46.183533 11.900052-53.550232 42.216849-32.30014 133.167243-66.016952 265.484483-99.167096 398.368391-11.616717 46.183533 0 56.666912 46.183533 45.616865 73.383651-19.26675 146.483968-38.250166 219.30095-56.666912 23.800103-6.516695 36.833493-1.983342 42.216849 24.366772a799.003459 799.003459 0 0 0 28.333456 98.883761c9.633375 28.333456 0 38.5335-28.333456 45.050195-107.383798 26.633449-214.484262 54.966905-321.86806 82.733692l-141.66728 36.550158c-14.166728-50.716886-28.333456-97.183754-40.516842-143.933956-4.533353-16.15007 0-24.650107 17.850077-28.333456s41.933515-11.333382 62.900272-16.433405 31.733471-18.416746 25.216776-43.350188l-113.333824-453.335296a37.683496 37.683496 0 0 0-42.500184-31.73347H170.302584a82.733692 82.733692 0 0 1-28.333456-11.900052c9.35004-4.533353 18.416746-13.03339 28.333456-13.03339h570.069134a131.183901 131.183901 0 0 1 31.166802 8.216703z m-571.485808 368.334928c18.416746 67.71696 35.700155 133.733912 53.550232 198.334192 20.400088 73.666986 40.800177 147.617306 61.4836 221.284291 12.183386 44.200191 0 65.166949-41.933515 77.067-21.816761 6.23336-44.200191 11.616717-66.583622 15.866736A45.050195 45.050195 0 0 1 148.769157 810.687397c-28.333456-96.617085-56.666912-193.23417-79.333677-290.984593a159.800692 159.800692 0 0 1 130.617232-188.134148zM556.770923 9.133927h-201.450872l96.90042 390.435024h6.23336zM775.788538 9.133927m-137.133927 0a137.133927 137.133927 0 1 1 274.267854 0 137.133927 137.133927 0 1 1-274.267854 0ZM711.471593-65.949731v143.367287h138.5506v-128.067221a15.016732 15.016732 0 0 0-15.016732-15.300066h-39.950173v12.183386h11.616717a4.533353 4.533353 0 0 1 4.250019 4.816687v25.783445h-61.200265v-42.783518z m38.250166 98.600427H811.772027v32.300139h-62.050268z m0-43.633523H811.772027v31.450136h-62.050268zM893.089046 624.536591m-113.333824 0a113.333824 113.333824 0 1 1 226.667648 0 113.333824 113.333824 0 1 1-226.667648 0ZM830.188774 674.686809h47.033537v10.766713h31.73347v-10.766713h47.033537v-28.333456H925.105851v17.000073h-63.750276v-17.000073h-31.166801z m0-65.450284h54.966904V654.28672h32.30014v-45.050195h37.683497v-10.200044h-33.150144l28.333456-28.333456h4.533353v-10.200044H922.272506l-28.333456 30.316798-28.333456-30.316798h-35.41682v9.35004h4.533353l28.333456 28.333456h-32.30014z m4.250018 24.650107v11.333382l44.766861-4.533353v-11.616717z m0-17.000074v11.616717l44.200192-3.400014V612.353205z"  horiz-adv-x="1024" />

    
    <glyph glyph-name="ziyuan50ldpi" unicode="&#58888;" d="M777.813512 785.540549c8.706104 22.815998 0 60.0421 36.925891 56.739784 30.02105-1.801263 27.619366-32.122523 30.02105-56.139363 23.716629-3.002105 51.936416-3.302315 51.035785-35.124628s-25.517892-30.02105-49.834943-30.02105v-30.02105h106.874938c6.604631 0 14.710314 8.706104 18.613051 15.310735a104.173043 104.173043 0 0 0 182.828194 2.101474 31.822313 31.822313 0 0 1 33.623576-18.613051h95.466939v-80.456414h-96.367571a33.323365 33.323365 0 0 1-33.923786-18.613051 102.671991 102.671991 0 0 0-180.126299 2.401684 35.725049 35.725049 0 0 1-24.317051 15.010525c-33.023155 1.801263-66.34652 0-101.471149 0v-54.03789c23.116208 0 50.435364 0 50.735575-33.323365s-27.619366-30.02105-51.636206-32.122524a60.0421 60.0421 0 0 1 12.608841-54.638311 65.445889 65.445889 0 0 0 0-86.460623 62.743994 62.743994 0 0 1-12.308631-32.722945c-1.501052-41.128838 0-82.557887 0-125.187778a86.760834 86.760834 0 0 0 79.555783-54.638311 102.972201 102.972201 0 0 0-19.813893-96.967991h86.160413a32.722944 32.722944 0 0 1 19.813893 14.410104 94.866518 94.866518 0 0 0 157.310301 0 46.532627 46.532627 0 0 1 30.02105-15.010525c25.818103-2.101473 51.936416 0 79.555783 0v-84.659361h-81.056835a45.932206 45.932206 0 0 1-30.02105-15.610946 93.965886 93.965886 0 0 0-155.809249 0 40.528417 40.528417 0 0 1-27.018945 15.010525H634.913314a42.02947 42.02947 0 0 1-27.319155-15.610946 95.166728 95.166728 0 0 0-157.610512 1.501053 42.629891 42.629891 0 0 1-25.217682 14.109893 334.434496 334.434496 0 0 1-45.932206 0 36.32547 36.32547 0 0 0-42.629891 38.126734v27.018945V605.414249H201.709564v-610.327944a204.74356 204.74356 0 0 0-5.403789-33.023155h-12.30863a216.75198 216.75198 0 0 0-6.00421 35.725049V611.418459l-61.543153-23.716629a183.428615 183.428615 0 0 1 0-18.613051v-287.901869a47.733469 47.733469 0 0 1 16.211367-32.122523 90.06315 90.06315 0 0 0 0-140.198303 48.934311 48.934311 0 0 1-16.211367-32.122524c-1.801263-35.725049 0-71.450099 0-109.276621H52.204736v106.874937a38.727154 38.727154 0 0 1-16.811788 36.02526 85.860203 85.860203 0 0 0 1.801263 140.198303 40.828628 40.828628 0 0 1 14.109893 28.219787v296.007553a48.934311 48.934311 0 0 1-9.906946 25.818102 57.640416 57.640416 0 0 0-6.604631 58.240837c8.105683 21.314945 26.418524 14.410104 41.429049 15.310736s25.217682 0 37.826522 0a46.232417 46.232417 0 0 0 56.439574-31.822313l14.410104 53.437469h11.107789l9.306525-46.832838c37.826523 12.30863 11.708209 54.938521 38.126734 72.35073C193.603881 755.219289 203.510827 803.553179 210.415669 849.185175A52.536837 52.536837 0 0 0 256.648086 895.117381a56.139363 56.139363 0 0 0 60.042099-30.02105 127.889673 127.889673 0 0 0-24.31705-139.297671l16.511577-60.0421c6.904841 0 20.714524-2.101473 23.416419 2.101473 20.714524 34.824418 54.3381 21.314945 82.858098 21.915367a71.450099 71.450099 0 0 1 66.946941 30.02105 101.170938 101.170938 0 0 0 163.614722-9.306526 36.925891 36.925891 0 0 1 36.625681-19.213472h95.466939c0 16.811788 9.606736 33.023155-17.111998 32.722945-21.014735 0-35.424839 8.706104-35.424839 30.02105s16.211367 30.02105 35.725049 30.021049zM390.541968 33.513249c21.014735 6.30442 43.830733 6.30442 52.837048 17.412208 48.03368 60.0421 117.082095 60.0421 163.014301 0a30.02105 30.02105 0 0 1 18.01263-12.30863h94.266097c-47.433259 80.156203-30.02105 125.788199 62.143573 154.308197v120.084199a72.650941 72.650941 0 0 1-12.909051 35.424839 67.547362 67.547362 0 0 0 0 86.760834 53.137258 53.137258 0 0 1 10.207157 54.03789c-22.215577 0-45.631996-1.801263-48.634101 27.018945-3.902736 36.925891 26.118313 35.424839 49.234522 39.327576V609.316986h-96.06736a25.517892 25.517892 0 0 1-28.219787-17.412209 94.266097 94.266097 0 0 0-90.06315-58.541047 102.972201 102.972201 0 0 0-103.272412 73.551572H390.541968zM1082.226958 2.891778m-130.891777 0a130.891778 130.891778 0 1 1 261.783555 0 130.891778 130.891778 0 1 1-261.783555 0ZM1115.250113 7.695146v-37.826523h44.431154v-11.70821h-44.431154v-27.919576h-36.625681v27.919576h-64.545257v11.70821h9.306525v49.534732h55.238732v28.219787h-21.615156l-5.703999-20.414314h-33.023155l13.809683 49.234522h33.023155l-4.803368-17.111999h96.06736v-11.708209h-41.128839v-28.219787h36.925892v-11.708209z m-56.739784-37.826523h20.114103v37.826523h-20.114103zM1057.009276 643.540983m-130.891777 0a130.891778 130.891778 0 1 1 261.783555 0 130.891778 130.891778 0 1 1-261.783555 0ZM984.358335 701.481609h54.338101V714.991082h36.625681v-12.308631h54.3381v-30.02105h-36.02526v17.111999H1020.984016v-19.513683h-36.02526zM984.958756 624.927932h63.344416V678.06519h37.226102V624.927932h43.530522v-11.70821h-38.727154l33.623576-33.623575h5.103578v-11.70821h-38.426944l-33.923786 35.424839-33.623576-34.824418h-38.727155v11.70821H990.962966l33.623576 33.623575H984.958756z m6.00421 30.02105v12.608841l50.735575-3.902737v-13.209262z m0-19.813893v12.909051l50.735575-3.902736v-13.209262z"  horiz-adv-x="1284" />

    
    <glyph glyph-name="yujing_gaoliang" unicode="&#58919;" d="M227.84-46.08v368.64c0 165.888 128 302.08 284.16 302.08s284.16-135.68 284.16-302.08v-368.64M988.16-46.08h-143.36v384c0 183.296-149.504 332.8-332.8 332.8s-332.8-149.504-332.8-332.8v-384H42.496c-16.896 0-30.72-13.824-30.72-30.72s13.824-30.72 30.72-30.72H988.16c16.896 0 30.72 13.824 30.72 30.72s-13.824 30.72-30.72 30.72zM240.64 337.92c0 149.504 121.856 271.36 271.36 271.36s271.36-121.856 271.36-271.36v-384H435.2v363.52c0 16.896-13.824 30.72-30.72 30.72s-30.72-13.824-30.72-30.72v-363.52H240.64v384zM865.28 373.76c0-16.896 13.824-30.72 30.72-30.72h87.04c16.896 0 30.72 13.824 30.72 30.72s-13.824 30.72-30.72 30.72h-87.04c-16.896 0-30.72-13.824-30.72-30.72zM784.384 612.864c7.68 0 15.872 3.072 22.016 9.216l61.44 61.44c11.776 12.288 11.776 31.744 0 43.52-12.288 11.776-31.744 11.776-43.52 0l-61.44-61.44c-11.776-12.288-11.776-31.744 0-43.52 5.632-6.144 13.824-9.216 21.504-9.216zM514.048 726.528c16.896 0 30.72 13.824 30.72 30.72v87.04c0 16.896-13.824 30.72-30.72 30.72s-30.72-13.824-30.72-30.72v-87.04c0-16.896 13.824-30.72 30.72-30.72zM224.256 626.176c5.632-6.144 13.824-9.216 21.504-9.216s15.872 3.072 22.016 9.216c11.776 12.288 11.776 31.744 0 43.52l-61.44 61.44c-12.288 11.776-31.744 11.776-43.52 0-11.776-12.288-11.776-31.744 0-43.52l61.44-61.44zM43.008 348.672h87.04c16.896 0 30.72 13.824 30.72 30.72s-13.824 30.72-30.72 30.72h-87.04c-16.896 0-30.72-13.824-30.72-30.72s13.824-30.72 30.72-30.72z"  horiz-adv-x="1024" />

    
    <glyph glyph-name="shexiangtou" unicode="&#58937;" d="M984.106667 234.666667L377.173333 840.746667a42.666667 42.666667 0 0 1-64-5.76L128 571.52a42.666667 42.666667 0 0 1 4.906667-54.613333l181.333333-181.333334-137.173333-135.893333H107.946667v157.866667a21.333333 21.333333 0 0 1-21.333334 21.333333H48.64a21.333333 21.333333 0 0 1-21.333333-21.333333V-64a21.333333 21.333333 0 0 1 21.333333-21.333333h37.973333a21.333333 21.333333 0 0 1 21.333334 21.333333v178.346667h86.826666a42.666667 42.666667 0 0 1 30.08 12.373333l149.333334 149.333333 150.613333-150.613333a42.666667 42.666667 0 0 1 30.293333-12.586667h5.12L960 161.28A42.666667 42.666667 0 0 1 984.106667 234.666667z m-211.413334-9.386667l-123.733333 123.733333a21.333333 21.333333 0 0 1-30.08 0l-26.88-26.88a21.333333 21.333333 0 0 1 0-30.08l79.146667-79.146666-101.546667-12.373334-352.213333 351.36 135.466666 192L861.866667 234.666667z"  horiz-adv-x="1024" />

    
    <glyph glyph-name="shexiangtou-copy" unicode="&#59303;" d="M984.106667 234.66666699999996L377.173333 840.746667a42.666667 42.666667 0 0 1-64-5.76L128 571.52a42.666667 42.666667 0 0 1 4.906667-54.613333l181.333333-181.333334-137.173333-135.893333H107.946667v157.866667a21.333333 21.333333 0 0 1-21.333334 21.333333H48.64a21.333333 21.333333 0 0 1-21.333333-21.333333V-64a21.333333 21.333333 0 0 1 21.333333-21.333333h37.973333a21.333333 21.333333 0 0 1 21.333334 21.333333v178.346667h86.826666a42.666667 42.666667 0 0 1 30.08 12.373333l149.333334 149.333333 150.613333-150.613333a42.666667 42.666667 0 0 1 30.293333-12.586667h5.12L960 161.27999999999997A42.666667 42.666667 0 0 1 984.106667 234.66666699999996z m-211.413334-9.386667l-123.733333 123.733333a21.333333 21.333333 0 0 1-30.08 0l-26.88-26.88a21.333333 21.333333 0 0 1 0-30.08l79.146667-79.146666-101.546667-12.373334-352.213333 351.36 135.466666 192L861.866667 234.66666699999996z"  horiz-adv-x="1024" />

    
    <glyph glyph-name="shexiangtou-copy-copy" unicode="&#59304;" d="M984.106667 234.66666699999996L377.173333 840.746667a42.666667 42.666667 0 0 1-64-5.76L128 571.52a42.666667 42.666667 0 0 1 4.906667-54.613333l181.333333-181.333334-137.173333-135.893333H107.946667v157.866667a21.333333 21.333333 0 0 1-21.333334 21.333333H48.64a21.333333 21.333333 0 0 1-21.333333-21.333333V-64a21.333333 21.333333 0 0 1 21.333333-21.333333h37.973333a21.333333 21.333333 0 0 1 21.333334 21.333333v178.346667h86.826666a42.666667 42.666667 0 0 1 30.08 12.373333l149.333334 149.333333 150.613333-150.613333a42.666667 42.666667 0 0 1 30.293333-12.586667h5.12L960 161.27999999999997A42.666667 42.666667 0 0 1 984.106667 234.66666699999996z m-211.413334-9.386667l-123.733333 123.733333a21.333333 21.333333 0 0 1-30.08 0l-26.88-26.88a21.333333 21.333333 0 0 1 0-30.08l79.146667-79.146666-101.546667-12.373334-352.213333 351.36 135.466666 192L861.866667 234.66666699999996z"  horiz-adv-x="1024" />

    
    <glyph glyph-name="xinzeng" unicode="&#58958;" d="M890.2 544.4c-20.7 49.1-50.4 93.1-88.3 130.9S720 742.8 671 763.6C620.2 785.1 566.3 796 510.7 796c-55.6 0-109.5-10.9-160.3-32.4-49.1-20.7-93.1-50.4-130.9-88.3-37.8-37.8-67.5-81.9-88.3-130.9-21.5-50.8-32.4-104.8-32.4-160.4 0-55.6 10.9-109.5 32.4-160.3 20.7-49.1 50.4-93.1 88.3-130.9s81.9-67.5 130.9-88.3c50.8-21.5 104.7-32.4 160.3-32.4 55.6 0 109.5 10.9 160.3 32.4 49.1 20.7 93.1 50.4 130.9 88.3s67.5 81.9 88.3 130.9c21.5 50.8 32.4 104.7 32.4 160.3 0 55.6-10.9 109.6-32.4 160.4zM510.7 20.1C310 20.1 146.8 183.4 146.8 384c0 200.7 163.2 363.9 363.9 363.9S874.6 584.7 874.6 384c0-200.6-163.3-363.9-363.9-363.9zM748.3 406.1h-213V615.3c0 13.3-10.7 24-24 24s-24-10.7-24-24v-209.2h-213c-13.3 0-24-10.7-24-24s10.7-24 24-24h213v-209.2c0-13.3 10.7-24 24-24s24 10.7 24 24V358.1h213c13.3 0 24 10.7 24 24s-10.8 24-24 24z"  horiz-adv-x="1024" />

    
    <glyph glyph-name="xiangqing" unicode="&#58988;" d="M610 545H390c-8.3 0-15 6.7-15 15s6.7 15 15 15h220c8.3 0 15-6.7 15-15 0-8.2-6.8-15-15-15zM610 447H390c-8.3 0-15 6.7-15 15s6.7 15 15 15h220c8.3 0 15-6.7 15-15 0-8.2-6.8-15-15-15zM525.6 349H390c-8.3 0-15 6.7-15 15s6.7 15 15 15h135.7c8.3 0 15-6.7 15-15-0.1-8.2-6.8-15-15.1-15zM700 691H300c-22.1 0-40-17.9-40-40v-508c0-22.1 17.9-40 40-40h215c8.3 0 15 6.7 15 15s-6.7 15-15 15H310c-11 0-20 9-20 20V641c0 11 9 20 20 20h380c11 0 20-9 20-20v-313c0-8.3 6.7-15 15-15s15 6.7 15 15V651c0 22.1-17.9 40-40 40zM778.6 82.4c-5.9-5.9-15.4-5.9-21.2 0L722 117.8c-5.9 5.9-5.9 15.4 0 21.2 5.9 5.9 15.4 5.9 21.2 0l35.4-35.4c5.9-5.9 5.9-15.4 0-21.2zM625 123c-26.7 0-51.8 10.4-70.7 29.3-39 39-39 102.4 0 141.4s102.4 39 141.4 0c18.9-18.9 29.3-44 29.3-70.7 0-26.7-10.4-51.8-29.3-70.7-18.9-18.9-44-29.3-70.7-29.3z m0 170c-17.9 0-35.9-6.8-49.5-20.5-27.3-27.3-27.3-71.7 0-99 13.2-13.2 30.8-20.5 49.5-20.5s36.3 7.3 49.5 20.5S695 204.3 695 223s-7.3 36.3-20.5 49.5C660.8 286.2 642.9 293 625 293z"  horiz-adv-x="1024" />

    
    <glyph glyph-name="shanchu" unicode="&#59004;" d="M343.414634 458.926829v-337.170731c0-9.216 9.403317-17.832585 22.41561-18.669269l2.085463-0.062439h288.168586c13.374439 0 23.452098 8.154537 24.426146 17.283122L680.585366 121.756098V458.926829h37.463414v-337.170731c0-30.794927-26.73639-54.821463-59.167219-56.132683l-2.797268-0.062439H367.915707c-32.743024 0-60.391024 23.177366-61.902048 53.572683L305.95122 121.756098V458.926829h37.463414zM724.292683 527.609756a18.731707 18.731707 0 0 0 1.798244-37.376L724.292683 490.146341H299.707317a18.731707 18.731707 0 0 0-1.798244 37.376L299.707317 527.609756h424.585366zM462.04878 452.682927a18.731707 18.731707 0 0 0 18.644293-16.933464L480.780488 433.95122v-206.048781a18.731707 18.731707 0 0 0-37.376-1.798244L443.317073 227.902439V433.95122a18.731707 18.731707 0 0 0 18.731707 18.731707zM574.439024 452.682927a18.731707 18.731707 0 0 0 18.644293-16.933464L593.170732 433.95122v-206.048781a18.731707 18.731707 0 0 0-37.376-1.798244L555.707317 227.902439V433.95122a18.731707 18.731707 0 0 0 18.731707 18.731707zM613.900488 640c34.716098 0 65.011512-20.380098 66.622439-49.576585l0.062439-2.460098V546.341463h-37.463415v41.621854c0 5.994146-10.826927 13.786537-26.786341 14.523317l-2.435122 0.049951H410.099512c-16.471415 0-28.072585-7.517659-29.146536-13.661658l-0.074927-0.91161V546.341463h-37.463415v41.621854c0 29.683512 29.346341 50.862829 63.812683 51.986732l2.872195 0.049951h203.800976z"  horiz-adv-x="1024" />

    
    <glyph glyph-name="bianji" unicode="&#58997;" d="M512 661.333333a21.333333 21.333333 0 0 0 3.84-42.325333L512 618.666667H298.666667a21.333333 21.333333 0 0 1-20.992-17.493334L277.333333 597.333333v-426.666666a21.333333 21.333333 0 0 1 17.493334-20.992L298.666667 149.333333h426.666666a21.333333 21.333333 0 0 1 20.992 17.493334L746.666667 170.666667V384a21.333333 21.333333 0 0 0 42.325333 3.84L789.333333 384v-213.333333a64 64 0 0 0-57.856-63.701334L725.333333 106.666667H298.666667a64 64 0 0 0-63.701334 57.856L234.666667 170.666667V597.333333a64 64 0 0 0 57.856 63.701334L298.666667 661.333333h213.333333zM752.896 655.104a21.333333 21.333333 0 0 0 32.64-27.221333l-2.432-2.986667-256-256a21.333333 21.333333 0 0 0-32.64 27.221333l2.432 2.986667 256 256z"  horiz-adv-x="1024" />

    
    <glyph glyph-name="tuichu" unicode="&#58880;" d="M113.778 839.111h56.889V-71.11h-56.89zM113.778 839.111h56.889V-71.11h-56.89z m625.778 0h56.888v-170.667h-56.888zM739.556 839.111h56.888v-170.667h-56.888z m0-796.444h56.888V-128h-56.888zM739.556 42.667h56.888V-128h-56.888zM113.778 839.11h625.778v-56.889H113.778zM113.778 839.111h625.778v-56.889H113.778z m0-910.222h625.778V-128H113.778zM113.778-71.111h625.778V-128H113.778zM284.444 384h568.89v-56.889h-568.89zM284.444 384h568.89v-56.889h-568.89zM904.533 332.8l17.067 22.756-199.111 199.11-39.822-39.822 159.289-159.288-159.29-164.978 39.823-39.822z"  horiz-adv-x="1024" />

    
    <glyph glyph-name="xiaoxi" unicode="&#58969;" d="M512-128c-81.321708 0-154.969169 47.989933-188.864719 121.234697h-182.939326a87.707326 87.707326 0 0 0-72.865079 136.307056l53.915326 80.780944V444.623101A389.844854 389.844854 0 0 0 378.672899 811.824899C403.248899 862.668225 455.288809 896 512 896s108.739596-33.366292 133.315596-84.163596a389.844854 389.844854 0 0 0 257.449707-367.213303v-234.288899l53.903821-80.792449a87.69582 87.69582 0 0 0-72.934113-136.341573h-182.939326C666.946157-79.998562 593.310202-128 512-128z m0 969.923596c-39.372225 0-73.889079-24.069753-87.960449-61.324944l-4.602248-12.10391-12.288-4.026967a335.964045 335.964045 0 0 1-231.872719-319.856179v-250.638383l-63.004764-94.346067a33.642427 33.642427 0 0 1 27.958652-52.258517h220.102472l6.397123-17.983281c21.860674-61.750652 80.286202-103.23991 145.246922-103.23991s123.305708 41.489258 145.235415 103.23991l6.385618 17.983281h220.102472a33.619416 33.619416 0 0 1 27.970158 52.258517l-62.981753 94.346067V444.623101a335.964045 335.964045 0 0 1-231.884225 319.85618l-12.299505 4.026966-4.602248 12.115416c-13.818247 36.67991-49.140494 61.313438-87.902921 61.313438zM333.570876 47.219056h363.727102v-54.064899H333.570876z"  horiz-adv-x="1024" />

    
    <glyph glyph-name="tongzhi1" unicode="&#58891;" d="M507.790222-128c80.611556 0 148.423111 51.2 148.423111 102.4H358.4c0-51.2 68.835556-102.4 149.390222-102.4z m349.809778 286.264889V447.601778c0 161.962667-93.866667 297.528889-259.185778 333.368889V816.924444C598.414222 860.728889 559.786667 896 512 896c-47.786667 0-86.414222-35.328-86.414222-79.075556v-35.896888c-164.750222-35.896889-259.185778-170.951111-259.185778-333.368889v-289.393778L51.2 78.336v-52.736h921.6v52.736l-115.2 79.928889z m-103.708444-30.264889h-484.693334V449.820444C269.141333 582.826667 369.777778 691.2 512 691.2s241.891556-108.373333 241.891556-241.379556V128z"  horiz-adv-x="1024" />

    
    <glyph glyph-name="mianjitu" unicode="&#59022;" d="M959.407378 443.20952l0-506.749416L63.91417-63.539896 63.91417 101.971695l273.16238 273.158287 379.177925-126.443807L959.407378 443.20952zM63.91417 427.845601 335.794347 808.588161l360.225271-240.21192 263.387759 105.33607 0-148.650575L703.455985 320.387193 319.805188 448.36289 63.91417 192.40945 63.91417 427.845601zM319.679321 896 0.020978 448.36289l0-575.674205 1023.343037 0L1023.364015 768.241244l-319.90803-128.005372L320.055898 896 319.679321 896z"  horiz-adv-x="1024" />

    
    <glyph glyph-name="data" unicode="&#58916;" d="M1189.647-128h-1174.588c-8.312 0-15.059 6.746-15.059 15.059v30.118c0 8.312 6.746 15.059 15.059 15.059h105.412v542.148c0 33.25 26.955 60.235 60.235 60.235h240.941v120.44c0 33.28 26.955 60.235 60.235 60.235h240.941v120.501c0 33.25 26.955 60.235 60.235 60.235h240.941c33.25 0 60.235-26.985 60.235-60.235v-903.56h105.412c8.312 0 15.059-6.746 15.059-15.059v-30.118c0-8.312-6.746-15.059-15.059-15.059zM421.647 474.383h-240.941v-542.148h240.941v542.148zM722.824 655.089h-240.941v-722.854h240.941v722.854zM1024 835.765h-240.941v-903.529h240.941v903.529z"  horiz-adv-x="1205" />

    
    <glyph glyph-name="biaozhun" unicode="&#58887;" d="M923.369092 709.923024l-822.738184 0c-36.676317 0-66.514903-29.838585-66.514903-66.514903l0-372.483456c0-36.676317 29.838585-66.514903 66.514903-66.514903l822.738184 0c36.676317 0 66.514903 29.838585 66.514903 66.514903l0 372.483456C989.883995 680.084439 960.045409 709.923024 923.369092 709.923024zM938.718685 270.924665c0-8.463766-6.885827-15.349593-15.349593-15.349593l-72.65474 0 0 109.493763c0 14.129812-11.452843 25.582655-25.582655 25.582655s-25.582655-11.452843-25.582655-25.582655l0-109.493763-75.724659 0 0 72.65474c0 14.129812-11.452843 25.582655-25.582655 25.582655s-25.582655-11.452843-25.582655-25.582655l0-72.65474-75.724659 0 0 72.65474c0 14.129812-11.452843 25.582655-25.582655 25.582655s-25.582655-11.452843-25.582655-25.582655l0-72.65474-75.724659 0 0 72.65474c0 14.129812-11.453866 25.582655-25.582655 25.582655s-25.582655-11.452843-25.582655-25.582655l0-72.65474-75.724659 0 0 72.65474c0 14.129812-11.453866 25.582655-25.582655 25.582655s-25.582655-11.452843-25.582655-25.582655l0-72.65474-75.724659 0 0 109.493763c0 14.129812-11.453866 25.582655-25.582655 25.582655s-25.582655-11.452843-25.582655-25.582655l0-109.493763-64.46829 0c-8.463766 0-15.349593 6.885827-15.349593 15.349593l0 372.483456c0 8.463766 6.885827 15.349593 15.349593 15.349593l822.738184 0c8.463766 0 15.349593-6.885827 15.349593-15.349593L938.718685 270.924665zM833.318146 120.498654l-642.636293 0c-14.128789 0-25.582655-11.452843-25.582655-25.582655s11.453866-25.582655 25.582655-25.582655l642.636293 0c14.129812 0 25.582655 11.452843 25.582655 25.582655S847.447958 120.498654 833.318146 120.498654z"  horiz-adv-x="1024" />

    
    <glyph glyph-name="shaixuan" unicode="&#59302;" d="M669.76-128a32 32 0 0 0-32 32V439.232c0 7.424 2.624 14.656 7.36 20.416l268.352 324.096c13.248 15.808 17.024 34.816 12.992 43.456-0.576 1.28-2.24 4.8-12.672 4.8H110.208c-10.432 0-12.096-3.52-12.736-4.864-4.032-8.64-0.192-27.584 12.928-43.264L428.608 457.6a32.128 32.128 0 0 0 9.088-22.336l-0.064-311.616a32 32 0 0 0-64 0l0.064 298.624-310.72 318.72C32.96 776.576 24.192 821.376 39.488 854.208 51.904 880.768 77.632 896 110.208 896h803.648c32.576 0 58.304-15.232 70.656-41.792 15.296-32.832 6.528-77.568-21.888-111.488l-260.864-315.072V-96a32 32 0 0 0-32-32z"  horiz-adv-x="1024" />

    
    <glyph glyph-name="knowledge-base" unicode="&#59098;" d="M107 829v-890h810v890h-810zM272 779h190v-229.3l-64.8 49.1-30.2 23-95-72.1v229.3zM157-11v790h65v-330l145 110 145-110v330h355v-790h-710z"  horiz-adv-x="1024" />

    
    <glyph glyph-name="yichangtiaojianshezhi" unicode="&#58909;" d="M911.166 193H115.123c-23.147 0-41.979 18.841-41.979 42V700.996c0 23.159 18.832 42 41.979 42h796.043c23.147 0 41.979-18.841 41.979-42V235c0-23.159-18.832-42-41.979-42z m-788.021 50h780V692.996h-780V243zM538.145 92c0-9.389-8.273-17-18.479-17h-13.043c-10.205 0-18.479 7.611-18.479 17V217c0 9.389 8.273 17 18.479 17h13.043c10.205 0 18.479-7.611 18.479-17v-125zM788.145 56c0-9.389-7.724-17-17.251-17H255.396c-9.527 0-17.251 7.611-17.251 17v16c0 9.389 7.724 17 17.251 17h515.498c9.527 0 17.251-7.611 17.251-17v-16zM358.126 391.302c6.639-6.639 6.397-17.645-0.539-24.581l-10.236-10.236c-6.936-6.936-17.941-7.177-24.581-0.538l-94.752 94.752c-6.639 6.639-6.397 17.645 0.539 24.581l10.236 10.236c6.936 6.936 17.941 7.177 24.581 0.539l94.752-94.753zM618.126 442.131c6.639-6.639 6.397-17.645-0.538-24.581l-10.236-10.236c-6.937-6.936-17.941-7.177-24.581-0.539l-94.752 94.752c-6.639 6.639-6.397 17.645 0.539 24.581l10.236 10.236c6.936 6.936 17.941 7.177 24.581 0.539l94.751-94.752zM345.688 355.547c-7.43-5.738-18.106-4.368-23.846 3.063l-9.781 12.662c-5.739 7.43-4.368 18.107 3.062 23.846l185.188 143.044c7.43 5.739 18.106 4.369 23.846-3.062l9.78-12.663c5.74-7.43 4.369-18.106-3.061-23.846L345.688 355.547zM606.317 405.497c-7.431-5.738-18.106-4.368-23.846 3.063l-9.78 12.662c-5.74 7.43-4.369 18.106 3.061 23.846L760.94 588.112c7.43 5.739 18.106 4.369 23.846-3.062l9.78-12.663c5.74-7.43 4.369-18.106-3.061-23.846L606.317 405.497z"  horiz-adv-x="1024" />

    
    <glyph glyph-name="liuliang" unicode="&#58890;" d="M919.9 478.3c-22.1 54.8-54.5 103.8-96.4 145.7L579.7 867.9C561.6 886 537.6 896 512 896s-49.6-10-67.7-28.1L200.5 624c-41.9-41.9-74.3-90.9-96.4-145.7C82.8 425.5 72 369.6 72 312.3s10.8-113.2 32.1-166c22.1-54.8 54.5-103.8 96.4-145.7 41.9-41.9 90.9-74.4 145.6-96.5 52.8-21.3 108.6-32.1 165.9-32.1 57.3 0 113.1 10.8 165.9 32.1 54.7 22.1 103.7 54.6 145.6 96.5 41.9 41.9 74.3 90.9 96.4 145.7 21.3 52.8 32.1 108.7 32.1 166s-10.8 113.2-32.1 166z m-55.7-309.5c-19.1-47.3-47.1-89.6-83.2-125.7-36.1-36.2-78.4-64.2-125.6-83.3C609.8-58.7 561.5-68 512-68s-97.8 9.3-143.4 27.8c-47.2 19.1-89.5 47.1-125.6 83.3-36.1 36.2-64.1 78.5-83.2 125.7-18.4 45.7-27.8 94-27.8 143.5s9.3 97.9 27.8 143.5c19.1 47.3 47.1 89.6 83.2 125.7l243.7 244C493.5 832.3 502.5 836 512 836s18.5-3.7 25.3-10.5L781 581.6c36.1-36.2 64.1-78.5 83.2-125.7 18.4-45.7 27.8-94 27.8-143.5s-9.3-98-27.8-143.6zM741.1 381.5c-11.7 11.7-30.8 11.7-42.4 0L581.3 264.1 463.9 381.5c-11.7 11.7-30.8 11.7-42.4 0L282.9 242.9c-11.7-11.7-11.7-30.8 0-42.4 11.7-11.7 30.8-11.7 42.4 0l117.4 117.4 117.4-117.4c11.7-11.7 30.8-11.7 42.4 0l138.6 138.6c11.7 11.7 11.7 30.7 0 42.4z"  horiz-adv-x="1024" />

    
    <glyph glyph-name="rizhiyichang" unicode="&#58903;" d="M234.27218 864h58.36780969v-179.99999344h-58.36874719V864zM583.99997844 864h58.27218562v-179.99999344H583.99997844V864zM175.99999437 564.00001125h524.59216688v-59.99999719H175.99999437v59.99999719z m0-179.9999925h291.40780125v-59.99999812H175.99999437v59.99999812z m352.55998594-383.999985H32V816.00000188h767.99997v-381.6477975C911.16871531 403.00783031 991.9999625 298.8956475 991.9999625 174.00002718999997c0-149.99999437-116.59218281-269.99998969-262.27217719-269.99998969a258.38436469 258.38436469 0 0 0-201.1199925 95.99999625z m212.35217906 443.75998312V757.68000375H91.08781062v-699.35997188H492.36873219A277.72780125 277.72780125 0 0 0 467.40779562 174.00002718999997c0 149.99999437 116.59218281 269.99998969 262.31998969 269.99998875 3.744375 0 7.4878125-0.095625 11.18437407-0.23999906zM175.99999437 204.00002530999996h233.13561563v-59.99999719H175.99999437v59.99999719z m553.72779094 179.99999344c-110.73562031 0-203.9999925-95.99999625-203.9999925-209.99999156s93.26437125-209.99999156 203.9999925-209.9999925 203.9999925 95.99999625 203.99999156 209.9999925-93.26343375 209.99999156-203.99999156 209.99999156zM703.99997375 336.00002062h59.75999812v-203.99999249H703.99997375V336.00002062z m59.75999812-239.99999062v-59.75999812H703.99997375V96.00003000000004h59.75999812z"  horiz-adv-x="1024" />

    
    <glyph glyph-name="zhenggaicuoshi" unicode="&#58977;" d="M755.924195 319.996628a288.634929 288.634929 0 0 1 268.155005 287.354933 275.194979 275.194979 0 0 1-10.87996 78.719708 32.639879 32.639879 0 0 1-39.679853 22.399917 31.999881 31.999881 0 0 1-13.43895-8.319969l-55.039796-55.679794a95.358646 95.358646 0 0 0-127.996525 0 92.798656 92.798656 0 0 0 0 127.997525l55.038796 59.51978a31.999881 31.999881 0 0 1 0 45.438831 28.799893 28.799893 0 0 1-15.99994 5.759979 292.474915 292.474915 0 0 1-78.718708 12.799952 286.714936 286.714936 0 0 1-289.274927-288.635929 229.11615 229.11615 0 0 1 4.479984-46.078829l-37.75986-34.559872-183.676319 183.037321a96.638641 96.638641 0 0 1-18.559931 109.438594l-63.998762 63.998763a30.719886 30.719886 0 0 1-44.799834 0l-94.077651-87.679675a30.719886 30.719886 0 0 1 0-44.798834l67.199751-63.998762a94.078651 94.078651 0 0 1 109.437594-18.559931l181.116327-184.316316L57.055788 199.679074A191.996288 191.996288 0 0 1 0.097 64.001577a191.996288 191.996288 0 0 1 56.319791-135.037498 191.996288 191.996288 0 0 1 272.634988 0L547.287969 167.040195l255.99505-255.99605a127.997525 127.997525 0 0 1 92.798656-39.039855 127.997525 127.997525 0 0 1 90.238665 218.23719zM167.774377 728.310112a32.639879 32.639879 0 0 0-45.439831 0l-44.158836 44.799834 44.799834 44.798834 44.798833-44.159836a31.999881 31.999881 0 0 0 0-45.439832z m115.197573-755.187197a127.997525 127.997525 0 0 0-181.116328 0 127.997525 127.997525 0 0 0 0 179.837332L508.248114 526.71386h3.839986a30.079888 30.079888 0 0 1 0 8.31997 42.239843 42.239843 0 0 1 0 9.599964 8.319969 8.319969 0 0 1 0 3.839986 197.756266 197.756266 0 0 0 0 59.517779A224.636166 224.636166 0 0 0 739.924254 831.988728l-10.239962-10.239962a157.437416 157.437416 0 0 1 0-221.435179 156.797418 156.797418 0 0 1 220.796181 0l9.599964 10.87996a223.356171 223.356171 0 0 0-273.914983-218.23719h-17.279936s-3.199988 0-5.119981-3.839986z m658.548556-18.559931a63.999763 63.999763 0 0 0-90.237665 0L602.966762 202.879062l90.238666 90.238665L941.520506 44.801649a63.999763 63.999763 0 0 0 18.559931-44.799834 63.999763 63.999763 0 0 0-18.559931-45.438831zM192.093287 128.00134a63.999763 63.999763 0 1 1 0-127.997525 63.999763 63.999763 0 0 1 0 127.997525z m0 0"  horiz-adv-x="1024" />

    
    <glyph glyph-name="wodezerenzhenduan" unicode="&#58957;" d="M949.5 478.9V727.4c0 6.5-5.3 11.7-11.7 11.7H767.6c-3.2 0-5.9 2.6-5.9 5.9v51c0 3.2-2.6 5.9-5.9 5.9H705c-3.2 0-5.9-2.6-5.9-5.9v-51c0-3.2-2.6-5.9-5.9-5.9h-364c-3.2 0-5.9 2.6-5.9 5.9v51c0 3.2-2.6 5.9-5.9 5.9h-50.9c-3.2 0-5.9-2.6-5.9-5.9v-51c0-3.2-2.6-5.9-5.9-5.9h-170c-6.5 0-11.7-5.3-11.7-11.7v-727.7c0-6.5 5.3-11.7 11.7-11.7h853.4c6.5 0 11.7 5.3 11.7 11.7V478.9h-0.3z m-62-422.4c0-3.2-2.6-5.9-5.9-5.9H141.3c-3.2 0-5.9 2.6-5.9 5.9V420.4c0 0.2 0.1 0.3 0.1 0.5v73.4c0 0.2-0.1 0.3-0.1 0.5V670.7c0 3.2 2.6 5.9 5.9 5.9h113.5c3.3 0 6-2.6 6-5.9v-50.8c0-3.2 2.6-5.9 5.9-5.9h50.9c3.2 0 5.9 2.6 5.9 5.9v50.8c0 3.2 2.6 5.9 5.9 5.9h364c3.2 0 5.9-2.6 5.9-5.9v-50.8c0-3.2 2.6-5.9 5.9-5.9h50.9c3.2 0 5.9 2.6 5.9 5.9v50.8c0 3.2 2.6 5.9 5.9 5.9h113.4c3.2 0 5.9-2.6 5.9-5.9V528h0.4v-102.1h0.2v-369.4zM729.7 379h-48.4c-11.8 0-22.3-7.1-26.5-18.2L617 263.1 482.1 488.6c-5 8.5-14.3 13.8-24.1 13.9-9.6 0.1-19.2-5-24.4-13.3l-84.5-133.6h-82.6c-15.7 0-28.4-12.8-28.4-28.4s12.8-28.4 28.4-28.4h98.2c9.8 0 18.7 5 24 13.3l68.2 107.8 141.1-236c5.1-8.5 14.4-13.9 24.4-13.9 0.8 0 1.7 0 2.5 0.1 10.8 0.9 20.2 8.1 24.1 18.1l51.7 133.9h29c15.7 0 28.4 12.8 28.4 28.4 0 15.7-12.7 28.5-28.4 28.5z"  horiz-adv-x="1024" />

    
    <glyph glyph-name="zerenzhenduandian" unicode="&#58965;" d="M911.2 7L756.6 161.4c27.1 31.2 49 66.1 65.1 104.4 20.5 48.4 30.9 99.9 30.9 152.9 0 52.9-10.4 104.5-30.9 152.9-19.8 46.8-48.1 88.8-84.2 124.8-36 36-78 64.4-124.8 84.2-48.4 20.4-99.9 30.8-152.8 30.8-73.3 0-144.9-20.4-206.9-58.8-60.3-37.3-109.4-90.3-142-153.1-8.7-16.6-2.2-37.2 14.5-45.8 16.7-8.6 37.2-2.2 45.8 14.5C227.5 676.3 338 743.5 459.8 743.5c179.1 0 324.8-145.7 324.8-324.8S639 94 459.9 94c-121.9 0-232.5 67.3-288.6 175.6-8.6 16.7-29.2 23.1-45.8 14.5-16.7-8.6-23.1-29.2-14.5-45.8 32.7-62.9 81.7-116 142-153.4 62-38.5 133.6-58.9 206.9-58.9 53 0 104.5 10.4 152.9 30.9 34.4 14.5 66.3 33.8 95.1 57.3L863.1-41c6.6-6.6 15.3-9.9 24.1-9.9s17.4 3.3 24.1 9.9c13.1 13.2 13.1 34.7-0.1 48zM336.3 497.6l149.8-250.4c5.4-9.1 15.3-14.7 25.9-14.7 0.8 0 1.8 0 2.6 0.1 11.4 1 21.5 8.6 25.6 19.2l54.9 142.1h30.8c16.7 0 30.2 13.5 30.2 30.2s-13.5 30.2-30.2 30.2h-51.4c-12.6 0-23.6-7.6-28.2-19.3l-40.1-103.8L363 570.7c-5.3 9-15.1 14.6-25.6 14.7-10.2 0.1-20.4-5.3-25.9-14.1l-89.7-141.8h-87.7c-16.7 0-30.2-13.5-30.2-30.2s13.5-30.2 30.2-30.2h104.3c10.4 0 19.9 5.3 25.5 14.1l72.4 114.4z"  horiz-adv-x="1024" />

    
    <glyph glyph-name="yichang" unicode="&#58928;" d="M512 839.111c-250.311 0-455.111-204.8-455.111-455.111S261.689-71.111 512-71.111 967.111 133.689 967.111 384 762.311 839.111 512 839.111m0-853.333c-221.867 0-398.222 176.355-398.222 398.222S290.133 782.222 512 782.222 910.222 605.867 910.222 384 733.867-14.222 512-14.222M512 213.333c-17.067 0-28.444-5.689-39.822-17.066-11.378-11.378-17.067-22.756-17.067-39.823 0-17.066 5.689-28.444 17.067-39.822 11.378-11.378 22.755-17.066 39.822-17.066 17.067 0 28.444 5.688 39.822 17.066C563.2 128 568.89 139.378 568.89 156.444c0 17.067-5.689 28.445-17.067 39.823-11.378 11.377-22.755 17.066-39.822 17.066z m-51.2 455.111l17.067-409.6h62.577l22.756 409.6H460.8z"  horiz-adv-x="1024" />

    
    <glyph glyph-name="jiangchengcuoshi" unicode="&#58896;" d="M383.5-64.22H192.39c-52.6 0-95.39 38.42-95.39 85.66V712.19c0 47.23 42.79 85.66 95.39 85.66h640.23c52.6 0 95.39-38.42 95.39-85.66V424.1c0-15.87-14.33-28.74-32-28.74s-32 12.87-32 28.74V712.19c0 15.54-14.08 28.18-31.39 28.18H192.39c-17.31 0-31.39-12.64-31.39-28.18v-690.76c0-15.54 14.08-28.18 31.39-28.18H383.5c17.67 0 32-12.87 32-28.74s-14.33-28.73-32-28.73zM734 576.23H288c-17.67 0-32 14.33-32 32s14.33 32 32 32h446c17.67 0 32-14.33 32-32s-14.33-32-32-32zM734 640.23H288c-17.67 0-32-14.33-32-32s14.33-32 32-32h446c17.67 0 32 14.33 32 32s-14.33 32-32 32zM734 446.09H288c-17.67 0-32 14.33-32 32s14.33 32 32 32h446c17.67 0 32-14.33 32-32s-14.33-32-32-32zM734 510.09H288c-17.67 0-32-14.33-32-32s14.33-32 32-32h446c17.67 0 32 14.33 32 32s-14.33 32-32 32zM606.51 316H288c-17.67 0-32 14.33-32 32s14.33 32 32 32h318.51c17.67 0 32-14.33 32-32s-14.32-32-32-32zM614.51 380H280c-13.26 0-24-14.33-24-32s10.75-32 24-32h334.51c13.26 0 24 14.33 24 32s-10.74 32-24 32zM479 192.12H288c-17.67 0-32 14.33-32 32s14.33 32 32 32h191c17.67 0 32-14.33 32-32 0-17.68-14.33-32-32-32zM479 256.12H288c-17.67 0-32-14.33-32-32s14.33-32 32-32h191c17.67 0 32 14.33 32 32s-14.33 32-32 32zM479 64.28H288c-17.67 0-32 14.33-32 32s14.33 32 32 32h191c17.67 0 32-14.33 32-32s-14.33-32-32-32zM479 128.28H288c-17.67 0-32-14.33-32-32s14.33-32 32-32h191c17.67 0 32 14.33 32 32s-14.33 32-32 32zM912.16 73.47c25.52 29.12 41 67.27 41 109.03 0 91.4-74.1 165.5-165.5 165.5s-165.5-74.1-165.5-165.5c0-45.95 18.73-87.52 48.96-117.5l-72.96-126.37 44.57 13.2 10.85-45.2 70.93 122.85c19.46-8.04 40.78-12.48 63.14-12.48 26.33 0 51.23 6.16 73.33 17.1l73.6-127.48 10.85 45.2 44.57-13.2-77.84 134.85z m-77.44 92.69l11.01-64.19-57.64 30.3-57.64-30.3 11.01 64.19-46.63 45.46 64.45 9.36 28.82 58.4 28.82-58.4 64.45-9.36-46.65-45.46z"  horiz-adv-x="1024" />

    
    <glyph glyph-name="shujuhuizong" unicode="&#58913;" d="M182.044444 366.933333a312.888889 312.888889 0 0 1 620.714667-56.888889h-364.657778V674.816A313.059556 313.059556 0 0 1 182.044444 366.990222z m312.888889-369.777777a369.777778 369.777778 0 1 0 0 739.669333V366.933333h369.891556a369.834667 369.834667 0 0 0-369.777778-369.777777zM606.549333 716.686222v-238.136889h238.136889a297.528889 297.528889 0 0 1-238.136889 238.136889z m297.130667-292.295111H552.391111V775.68a351.288889 351.288889 0 0 0 351.288889-351.288889z"  horiz-adv-x="1024" />

    
    <glyph glyph-name="shujuhuizong1" unicode="&#58918;" d="M824.888889 312.775111V614.741333c0 37.319111-31.288889 67.811556-70.144 67.811556H269.255111c-38.855111 0-70.144-30.492444-70.144-67.811556v-319.431111c0-37.319111 31.288889-67.868444 70.144-67.868444H739.555556a85.333333 85.333333 0 0 1 85.333333 85.333333z m-85.333333-142.222222H269.255111c-69.973333 0-127.032889 55.751111-127.032889 124.757333V614.741333c0 69.006222 57.059556 124.700444 127.032889 124.700445h485.489778c69.973333 0 127.032889-55.694222 127.032889-124.700445v-301.966222a142.222222 142.222222 0 0 0-142.222222-142.222222zM312.888889 454.997333m28.444444 0l0 0q28.444444 0 28.444445-28.444444l0-56.888889q0-28.444444-28.444445-28.444444l0 0q-28.444444 0-28.444444 28.444444l0 56.888889q0 28.444444 28.444444 28.444444ZM483.555556 568.775111m28.444444 0l0 0q28.444444 0 28.444444-28.444444l0-170.666667q0-28.444444-28.444444-28.444444l0 0q-28.444444 0-28.444444 28.444444l0 170.666667q0 28.444444 28.444444 28.444444ZM654.222222 511.886222m28.444445 0l0 0q28.444444 0 28.444444-28.444444l0-113.777778q0-28.444444-28.444444-28.444444l0 0q-28.444444 0-28.444445 28.444444l0 113.777778q0 28.444444 28.444445 28.444444ZM284.444444 85.447111m28.444445 0l398.222222 0q28.444444 0 28.444445-28.444444l0 0q0-28.444444-28.444445-28.444445l-398.222222 0q-28.444444 0-28.444445 28.444445l0 0q0 28.444444 28.444445 28.444444Z"  horiz-adv-x="1024" />

    
    <glyph glyph-name="yichangbaojing-" unicode="&#58912;" d="M512 697.7c12.36 0 22.39 10.02 22.39 22.39V809.64c0 12.36-10.02 22.39-22.39 22.39-12.36 0-22.39-10.02-22.39-22.39v-89.56c0-12.36 10.03-22.38 22.39-22.38zM223.67 596.15c4.37-4.37 10.1-6.56 15.83-6.56s11.46 2.19 15.83 6.56c8.75 8.75 8.75 22.91 0 31.66L192 691.14c-8.75 8.75-22.91 8.75-31.66 0s-8.75-22.91 0-31.66l63.33-63.33zM784.51 589.59c5.73 0 11.46 2.19 15.83 6.56l63.32 63.33c8.75 8.75 8.75 22.92 0 31.66-8.75 8.75-22.91 8.75-31.66 0l-63.32-63.33c-8.75-8.75-8.75-22.92 0-31.66a22.356 22.356 0 0 1 15.83-6.56zM847.83-18.74h-49V363.85c0 159.4-129.68 289.08-289.08 289.08S220.68 523.25 220.68 363.85v-382.59h-44.52c-12.36 0-22.39-10.01-22.39-22.39s10.02-22.39 22.39-22.39h671.67c12.38 0 22.39 10.01 22.39 22.39 0 12.37-10.01 22.39-22.39 22.39z m-582.37 0V363.85c0 134.71 109.59 244.3 244.3 244.3 134.72 0 244.3-109.59 244.3-244.3v-382.59h-488.6zM512 429.03c-44.2 0-111.94-108.07-111.94-201.5 0-61.72 50.22-111.94 111.94-111.94s111.94 50.22 111.94 111.94c0 94.76-73.02 201.5-111.94 201.5z m0-268.66c-37.04 0-67.17 30.13-67.17 67.17 0 71.61 46.65 141.46 66.36 155.14 18.72-14.63 67.98-83.03 67.98-155.14 0-37.04-30.13-67.17-67.17-67.17z"  horiz-adv-x="1024" />

    
    <glyph glyph-name="yunpanlogo-" unicode="&#58904;" d="M346.88 448H101.12A101.12 101.12 0 0 0 0 549.12V794.88A101.12 101.12 0 0 0 101.12 896h245.76A101.12 101.12 0 0 0 448 794.88v-245.76A101.12 101.12 0 0 0 346.88 448zM101.12 832a37.12 37.12 0 0 1-37.12-37.12v-245.76a37.12 37.12 0 0 1 37.12-37.12h245.76A37.12 37.12 0 0 1 384 549.12V794.88A37.12 37.12 0 0 1 346.88 832zM346.88-128H101.12A101.12 101.12 0 0 0 0-26.88v245.76A101.12 101.12 0 0 0 101.12 320h245.76A101.12 101.12 0 0 0 448 218.88v-245.76A101.12 101.12 0 0 0 346.88-128z m-245.76 384a37.12 37.12 0 0 1-37.12-37.12v-245.76a37.12 37.12 0 0 1 37.12-37.12h245.76a37.12 37.12 0 0 1 37.12 37.12v245.76a37.12 37.12 0 0 1-37.12 37.12zM922.88 448h-245.76A101.12 101.12 0 0 0 576 549.12V794.88A101.12 101.12 0 0 0 677.12 896h245.76A101.12 101.12 0 0 0 1024 794.88v-245.76A101.12 101.12 0 0 0 922.88 448z m-245.76 384a37.12 37.12 0 0 1-37.12-37.12v-245.76a37.12 37.12 0 0 1 37.12-37.12h245.76a37.12 37.12 0 0 1 37.12 37.12V794.88a37.12 37.12 0 0 1-37.12 37.12zM922.88-128h-245.76A101.12 101.12 0 0 0 576-26.88v245.76A101.12 101.12 0 0 0 677.12 320h245.76A101.12 101.12 0 0 0 1024 218.88v-245.76A101.12 101.12 0 0 0 922.88-128z m-245.76 384a37.12 37.12 0 0 1-37.12-37.12v-245.76a37.12 37.12 0 0 1 37.12-37.12h245.76a37.12 37.12 0 0 1 37.12 37.12v245.76a37.12 37.12 0 0 1-37.12 37.12z"  horiz-adv-x="1024" />

    
    <glyph glyph-name="yali" unicode="&#58967;" d="M512.7 853.2v-58.5c21.2 0 42.7-1.7 63.8-4.9 109.7-16.9 206.2-75.5 271.8-165 65.6-89.5 92.4-199.2 75.5-308.9-31-200.8-207.2-352.2-410-352.2-21.2 0-42.7 1.7-63.9 4.9-226.4 35-382.2 247.5-347.3 474 31 200.8 207.2 352.2 410 352.2l0.1 58.4m-0.1 0c-229.9 0-431.7-167.6-467.8-401.8C5 192.8 182.3-49.2 441-89.1c24.5-3.8 48.8-5.6 72.8-5.6 229.9 0 431.7 167.6 467.8 401.8 39.9 258.7-137.5 500.7-396.2 540.6-24.5 3.7-48.8 5.5-72.8 5.5zM811.4 325c-1.1 0-2.2 0.1-3.3 0.2-16 1.8-27.6 16.3-25.8 32.3C798.2 498.7 700.5 626.3 560 648c-35.2 5.4-59.8 5.2-87.7-0.9-15.8-3.5-31.3 6.6-34.8 22.3s6.6 31.3 22.3 34.8c35.1 7.7 66.7 8.1 109.1 1.6 171.7-26.5 291-182.3 271.6-354.8-1.7-15-14.4-26-29.1-26zM203.4 337.9c-16.2 0-29.3 13.1-29.2 29.3 0 14.8 1.1 45.2 4 63.7 13.2 85.4 50.9 154.4 112.1 205.2 12.4 10.3 30.9 8.6 41.2-3.9 10.3-12.4 8.6-30.9-3.9-41.2-49.9-41.3-80.7-98.2-91.6-169.1-2-13-3.3-38.6-3.3-54.9-0.1-16-13.2-29.1-29.3-29.1zM513.1 406.2c1.4 0 2.8-0.1 4.2-0.3 9.6-1.5 15.1-7.3 17.6-10.7 2.5-3.4 6.4-10.4 4.9-20-2-13-13.4-22.8-26.5-22.8-1.4 0-2.8 0.1-4.2 0.3-14.7 2.3-24.7 16-22.5 30.7 2 13 13.4 22.8 26.5 22.8m0 58.4c-41.4 0-77.7-30.2-84.3-72.4-7.2-46.6 24.8-90.2 71.4-97.4 4.4-0.7 8.8-1 13.1-1 41.4 0 77.7 30.2 84.3 72.4 7.2 46.6-24.8 90.2-71.4 97.4-4.4 0.7-8.8 1-13.1 1zM472.2 431.3c-11 0-21.5 6.2-26.5 16.9L357 638.1c-6.8 14.6-0.5 32 14.1 38.9 14.6 6.8 32.1 0.5 38.9-14.1L498.7 473c6.8-14.6 0.5-32-14.1-38.9-4-1.9-8.2-2.8-12.4-2.8z"  horiz-adv-x="1024" />

    
    <glyph glyph-name="tezhenggongcheng" unicode="&#58923;" d="M959.063415 64.811707c0-17.655758-14.313022-31.96878-31.968781-31.96878H95.906341c-17.655758 0-31.96878 14.313022-31.96878 31.96878V704.187317c0 17.655758 14.313022 31.96878 31.96878 31.968781h831.188293c17.655758 0 31.96878-14.313022 31.968781-31.968781v-639.37561z m-71.929756 447.562927H135.867317v-407.601951h751.266342V512.374634z m-603.127009-60.225186l146.934509-146.934509a7.992195 7.992195 0 0 0 0-11.302962l-39.205713-39.206713-0.007992-0.006993-107.720804-107.720804a7.992195 7.992195 0 0 0-11.301963 0l-33.908886 33.906888a7.992195 7.992195 0 0 0 0 11.302962l107.375141 107.375142-107.375141 107.375141a7.992195 7.992195 0 0 0 0 11.303961l33.908886 33.906888a7.992195 7.992195 0 0 0 11.301963 0zM823.196098 320.561951a7.992195 7.992195 0 0 0 7.992195-7.992195v-47.953171a7.992195 7.992195 0 0 0-7.992195-7.992195H583.430244a7.992195 7.992195 0 0 0-7.992195 7.992195v47.953171a7.992195 7.992195 0 0 0 7.992195 7.992195h239.765854z m63.937561 343.66439H135.867317v-87.914146h751.266342v87.914146z"  horiz-adv-x="1024" />

    
    <glyph glyph-name="yichang-1" unicode="&#58885;" d="M552.96 793.088c0 19.456-13.312 39.424-35.84 39.424-17.92 0-35.84-19.456-35.84-39.424v-136.192h71.68V793.088z m271.872-149.504c13.824 15.872 13.824 39.936-0.512 55.808-12.8 13.824-37.888 13.312-50.688-0.512l-86.528-97.28 51.2-55.296 86.528 97.28zM302.08 546.304l50.176 56.32-88.576 94.72c-6.144 6.656-14.848 10.752-24.064 11.264-10.24 0-19.968-4.096-26.624-12.288-12.8-14.336-12.288-41.472 0.512-55.808 0 0.512 88.576-94.208 88.576-94.208zM243.2 408.576H126.976c-17.92 0-35.84-19.456-35.84-39.424 0-19.968 17.92-39.424 35.84-39.424h116.224V408.576z m663.04 0h-116.224v-78.848H906.24c17.92 0 35.84 19.456 35.84 39.424 0 19.968-17.408 39.424-35.84 39.424z m-315.392-77.312H506.88l72.704 67.584c13.824 13.312 15.36 34.304 3.584 49.664-11.264 14.848-31.744 16.896-45.056 4.096l-112.64-104.96-1.536-2.048c-13.312-14.848-16.896-35.84-10.24-54.272 7.168-18.944 23.552-30.72 41.984-30.72h85.504l-79.872-77.824c-13.312-13.312-14.336-34.816-2.56-49.664 5.632-7.168 14.848-11.776 24.064-11.776 8.192 0 15.872 3.072 21.504 8.704l118.272 115.2 2.56 2.56c12.288 14.848 15.36 35.84 8.192 53.76-7.68 17.92-24.064 29.696-42.496 29.696zM337.92 57.856v291.84C337.92 458.752 418.816 547.84 518.656 547.84c99.328 0 180.224-89.088 180.224-198.144v-291.84H337.92z m478.208 0h-50.688v291.84c0 150.016-111.104 271.36-247.296 271.36s-247.296-121.856-247.296-271.36v-291.84H220.16c-18.432 0-33.28-16.384-33.28-36.864s14.848-36.864 33.28-36.864h596.48c18.432 0 33.28 16.384 33.28 36.864 0 19.968-14.848 36.864-33.792 36.864z"  horiz-adv-x="1024" />

    
    <glyph glyph-name="jishuzhenduan" unicode="&#59182;" d="M112.99 785c19.64 15.08 44.22 23.52 68.97 23.75 216.03-0.01 432.06 0 648.08 0 10.12 0.23 20.3-0.48 30.2-2.7 31.21-6.72 59.11-27.05 75.18-54.62 10.47-17.58 15.9-38 16.08-58.43v-448.04c-0.1-12.34 0.57-24.79-1.59-37.01-5.65-36.23-29.76-68.91-62.65-85.09-17.9-9.19-38.22-12.98-58.24-12.36-98.84-0.01-197.68 0-296.51-0.01-0.01-34.91-0.02-69.82 0-104.74 90.18 0 180.36-0.01 270.54 0.01 8.12 0.11 16.17-4.38 20.16-11.5 2.94-4.84 3.65-10.77 2.71-16.3-1.5-8.28-7.94-15.43-16.05-17.72-4.16-1.39-8.59-0.92-12.88-0.99h-576c-3.32 0.05-6.68-0.23-9.96 0.41-7.6 1.4-14.28 6.89-17.11 14.08-3.41 8.23-1.57 18.37 4.66 24.76 4.17 4.5 10.23 7.16 16.36 7.24 90.35 0.02 180.7 0 271.05 0.01 0.02 34.92 0.01 69.83 0.01 104.74-101 0.01-202 0.01-302.99 0.01-22.15 0.14-44.26 6.59-62.82 18.71-31.52 20.2-52.19 56.37-52.94 93.87V683.05c0.07 8.02-0.36 16.09 0.82 24.06 3.66 30.62 20.35 59.3 44.92 77.89m58.56-23.81c-15.21-2.61-29.4-10.54-39.75-21.96-10.93-12.05-17.58-27.98-18.05-44.27 0-155.34 0.01-310.68-0.01-466.02-1.39-29.31 18.23-57.8 45.78-67.59 9.06-3.41 18.83-4.58 28.48-4.36 215.64 0.02 431.28 0 646.93 0.01 15.48 0.06 30.91 5.31 43.08 14.91 12.42 9.65 21.41 23.62 25.03 38.93 1.72 6.91 2.08 14.08 1.96 21.18-0.01 148.64 0 297.29 0 445.93-0.08 10.34 0.62 20.87-2.07 30.98-5.75 24.08-25.19 44.26-49.1 50.72-11.95 3.64-24.54 2.38-36.83 2.6-211.34 0.01-422.67-0.01-634 0.01-3.84-0.03-7.67-0.43-11.45-1.07zM489.55 680.14c39.11 3.69 79.17-2.56 115.16-18.37 35.9-15.63 67.67-40.58 91.49-71.65 19.44-25.27 33.63-54.58 41.23-85.56 11.44-45.94 8.48-95.38-8.55-139.58-12.18-31.91-31.63-60.99-56.26-84.63-24.3-23.33-53.71-41.29-85.57-52.2-40.34-13.85-84.49-16.18-126.12-7.01-37.45 8.24-72.73 26.03-101.7 51.16-25.78 22.27-46.6 50.28-60.45 81.41-19.75 44.09-25.02 94.39-15.3 141.68 10.99 54.6 42.61 104.62 86.98 138.24 34.29 26.25 76.07 42.6 119.09 46.51m18.72-45.51c-17.55-0.33-35.06-3.08-51.83-8.28-44.58-13.65-83.37-44.85-106.49-85.3-14.41-24.97-22.85-53.34-24.4-82.13-2.33-39.38 8.32-79.42 30.05-112.36 19.54-29.92 47.84-54.07 80.55-68.49 36.34-16.27 77.98-20.1 116.77-11.28 33.32 7.53 64.4 24.57 88.76 48.5 24.62 24.02 42.47 54.97 50.63 88.4 10.4 41.67 5.8 86.94-13.04 125.56-15.65 32.59-41.1 60.34-72.09 78.92-29.61 17.9-64.33 27.1-98.91 26.46zM593.79 524.18c5.59 6.46 14.94 9.27 23.18 7.07 5.77-1.41 10.92-5.16 14.02-10.24 4.28-6.8 4.64-15.82 0.95-22.95-1.59-3.26-4.22-5.83-6.62-8.48-35.86-39.44-71.47-79.1-107.46-118.4-6.1-5.96-15.65-7.91-23.65-5.04-5.21 1.58-8.99 5.69-12.93 9.19-28.47 25.85-56.99 51.66-85.46 77.5-4.93 4.62-7.58 11.51-7.09 18.24 0.28 9.99 7.98 19.1 17.7 21.24 7.46 1.91 15.76-0.27 21.35-5.55 24.15-21.92 48.33-43.79 72.46-65.73 31.25 34.32 62.35 68.78 93.55 103.15z"  horiz-adv-x="1024" />

    
    <glyph glyph-name="liuliang1" unicode="&#58899;" d="M618.57 405.41h63.99v-234.63h-63.99V405.41z m-138.645-63.99h63.99v-170.64h-63.99V341.42zM341.28 277.43h63.99v-106.65h-63.99V277.43zM799.875 810.68c53.011 0 95.985-42.974 95.985-95.985v-661.23c0-53.011-42.974-95.985-95.985-95.985h-575.91c-53.011 0-95.985 42.974-95.985 95.985v661.23c0 53.011 42.974 95.985 95.985 95.985h575.91z m-575.91-63.99c-16.63 0-30.298-12.689-31.849-28.914l-0.146-664.311c0-16.63 12.689-30.298 28.914-31.849l578.991-0.146c16.63 0 30.298 12.689 31.849 28.914l0.146 664.311c0 16.63-12.689 30.298-28.914 31.849l-578.991 0.146zM426.6 682.7h170.64v-63.99H426.6V682.7z"  horiz-adv-x="1024" />

    
    <glyph glyph-name="rizhiguanli" unicode="&#58927;" d="M208.736 329.664H64.384v-59.328h144.352v59.328z m0 336.096H165.44V821.408c0 7.968 4.896 14.848 10.464 14.848h502.016V895.552H175.936c-38.72-1.248-69.248-34.368-68.192-74.144v-155.648H64.384V606.4h144.352V665.76z m0-168.096H64.384v-59.328h144.352v59.328z m714.656-76.576h-57.76v-474.496c0-7.936-4.896-14.848-10.464-14.848H175.936c-5.568 0-10.464 6.912-10.464 14.848v155.68h43.296v59.296H64.384v-59.296h43.328v-155.68c-1.024-39.776 29.472-72.896 68.192-74.144h679.232c38.72 1.184 69.248 34.368 68.256 74.144V421.088z m14.944 290.336l-83.072 85.312a71.264 71.264 0 0 1-52.544 21.728 71.52 71.52 0 0 1-51.616-23.872L386.528 388.736a30.496 30.496 0 0 1-6.176-10.72L308.16 155.488a30.016 30.016 0 0 1 6.976-30.24c7.712-7.968 19.2-10.752 29.568-7.2l216.544 74.112a28.736 28.736 0 0 1 12.128 7.936L940.448 608.544a75.552 75.552 0 0 1-2.112 102.88z m-557.12-518.272l39.104 120.64 78.336-80.416-117.44-40.224z m170.048 70.016l-103.552 106.016 200.16 222.4 103.52-106.304-200.128-222.112zM897.952 648.928l-0.256-0.224-107.136-119.168-103.52 106.528 106.432 118.624a14.144 14.144 0 0 0 10.304 4.736 13.44 13.44 0 0 0 10.464-4.288l83.264-85.696c5.472-5.6 5.664-14.72 0.448-20.512z"  horiz-adv-x="1024" />

    
    <glyph glyph-name="mobanguanli" unicode="&#58889;" d="M866.304 102.4h-60.416v51.2h60.416c16.384 0 29.696 13.312 29.696 29.696V738.304a29.696 29.696 0 0 1-29.696 29.696H311.296a29.696 29.696 0 0 1-29.696-29.696v-60.416h-51.2V738.304c0 44.544 36.352 80.896 80.896 80.896h554.496c44.544 0 80.896-36.352 80.896-80.896v-554.496c0.512-45.056-35.84-81.408-80.384-81.408zM763.904 0h-55.296v51.2h55.296c16.384 0 29.696 13.312 29.696 29.696V635.904a29.696 29.696 0 0 1-29.696 29.696H208.896a29.696 29.696 0 0 1-29.696-29.696v-55.296h-51.2V635.904c0 44.544 36.352 80.896 80.896 80.896h554.496c44.544 0 80.896-36.352 80.896-80.896v-554.496c0.512-45.056-35.84-81.408-80.384-81.408zM661.504-102.4H106.496c-44.544 0-80.896 36.352-80.896 80.896V533.504c0 44.544 36.352 80.896 80.896 80.896h554.496c44.544 0 80.896-36.352 80.896-80.896v-554.496c0.512-45.056-35.84-81.408-80.384-81.408zM106.496 563.2a29.696 29.696 0 0 1-29.696-29.696v-554.496c0-16.384 13.312-29.696 29.696-29.696h554.496c16.384 0 29.696 13.312 29.696 29.696V533.504a29.696 29.696 0 0 1-29.696 29.696H106.496z"  horiz-adv-x="1024" />

    
    <glyph glyph-name="jihua" unicode="&#58933;" d="M861.433649 896H142.889371c-39.65996 0-71.853928-31.581968-71.853927-70.508929v-881.346114c0-59.85794 68.913931-93.519906 116.169883-56.549943L457.608055 85.040816c25.949974 20.31998 62.429937 20.31998 88.500911 0l271.136727-197.690801c47.250952-36.848963 116.044883-3.184997 116.044883 56.674943V825.491071C933.287576 864.418032 901.093609 896 861.433649 896z m8.815991-951.974042c0-2.762997-0.724999-4.629995-2.423998-6.236994-1.791998-1.696998-4.346996-2.749997-6.670993-2.749997h-0.001c-1.187999 0-2.847997 0.23-5.143995 2.022998l-0.804999 0.624999-271.272727 197.791801c-23.469976 17.963982-52.584947 27.841972-82.121918 27.841972-29.56697 0-58.669941-9.89699-82.095917-27.890972L149.186365-62.112036l-0.821999-0.643c-2.309998-1.807998-3.977996-2.038998-5.174995-2.038998-0.09 0-9.114991 0.385-9.114991 8.938991V825.490071c0 4.047996 4.036996 7.469992 8.814991 7.469992h718.544278c4.779995 0 8.815991-3.421997 8.815991-7.470992v-881.464113zM694.832816 528.03637l-65.854934-65.854934a28.504971 28.504971 0 0 1-7.959992-25.093974l15.548985-93.029907c3.912996-23.133977-19.83198-40.881959-40.15396-29.86497l-81.399918 43.819956c-8.079992 4.284996-17.749982 4.284996-25.708974 0l-81.402918-43.941956c-20.31998-10.895989-44.067956 6.731993-40.14696 29.86497l15.540984 93.032907c1.596998 9.179991-1.465999 18.482981-7.953992 25.096974l-65.854933 65.854934c-16.404983 16.399984-7.346993 45.043955 15.302984 48.469951l90.947909 13.587987c9.056991 1.348999 16.892983 7.222993 20.806979 15.547984l40.641959 84.584915a27.399972 27.399972 0 0 0 24.849975 15.789984 27.399972 27.399972 0 0 0 24.849975-15.789984l40.634959-84.584915c4.043996-8.324992 11.873988-14.198986 20.812979-15.547984l90.948909-13.588987c22.893977-3.304997 31.949968-31.947968 15.549984-48.352951z"  horiz-adv-x="1024" />

    
    <glyph glyph-name="mingxi" unicode="&#59253;" d="M921.09090869 351.27272695h-405a36.81818174 36.81818174 0 0 0-36.81818174 36.81818174V793.09090869a32.72727305 32.72727305 0 0 0 32.72727305 32.72727305C756.02272695 825.81818174 953.81818174 628.02272695 953.81818174 384a32.72727305 32.72727305 0 0 0-32.72727305-32.72727305z m-34.11818174 65.4545461A376.44545479 376.44545479 0 0 1 544.72727305 758.97272695V416.72727305h342.2454539zM394.95909131 810.15a32.72727305 32.72727305 0 0 0 17.30454521-63.12272695A376.52727305 376.52727305 0 0 1 135.63636347 384a376.36363653 376.36363653 0 0 1 376.36363653-376.36363653 376.52727305 376.52727305 0 0 1 363.92727305 280.06363653 32.72727305 32.72727305 0 1 0 63.28636347-16.69090869A441.98181826 441.98181826 0 0 0 512-57.81818174C267.97727305-57.81818174 70.18181826 139.97727305 70.18181826 384 70.18181826 584.25 204.56818174 757.95 394.95909131 810.15z"  horiz-adv-x="1024" />

    
    <glyph glyph-name="zhibiao" unicode="&#58986;" d="M953.6 832c32-32 44.8-70.4 51.2-115.2v-684.8c0-44.8-19.2-83.2-44.8-115.2-32-32-70.4-44.8-115.2-44.8H160C76.8-128 0-51.2 0 32v64c0 19.2 19.2 32 38.4 32s38.4-12.8 38.4-32v-64c0-44.8 38.4-76.8 76.8-76.8h684.8c44.8 0 76.8 38.4 76.8 76.8V716.8c0 44.8-38.4 76.8-76.8 76.8H160c-44.8 0-76.8-38.4-76.8-76.8v-326.4c-6.4-12.8-25.6-25.6-44.8-25.6s-32 12.8-38.4 32v320C0 806.4 70.4 876.8 153.6 876.8h684.8c44.8 0 89.6-12.8 115.2-44.8zM768 556.8c-6.4 6.4-19.2 6.4-25.6 6.4l-179.2-44.8c-12.8 0-19.2-6.4-19.2-19.2 0-6.4 0-19.2 6.4-25.6l44.8-44.8L416 256 249.6 422.4c-12.8 6.4-25.6 12.8-38.4 12.8-12.8 0-25.6-6.4-38.4-19.2l-19.2-12.8-70.4-70.4-64-70.4c-6.4-6.4-12.8-19.2-12.8-25.6s6.4-19.2 12.8-25.6c19.2-19.2 38.4-19.2 57.6 0l140.8 140.8 147.2-147.2 19.2-19.2c19.2-19.2 57.6-19.2 76.8 0l192 192 38.4-38.4c6.4-6.4 19.2-6.4 25.6-6.4 6.4 0 19.2 12.8 19.2 19.2l44.8 179.2c-6.4 6.4-6.4 19.2-12.8 25.6z"  horiz-adv-x="1024" />

    
    <glyph glyph-name="gongkaijieguo" unicode="&#58895;" d="M807.808-81.152H214.656c-75.264 0-136.448 55.296-136.448 123.20256V690.944c0 67.84 61.184 123.136 136.448 123.136h92.928c21.56544 0 39.04-15.80544 39.04-35.39456 0-19.64544-17.47456-35.39456-39.04-35.39456h-92.928c-32.06144 0-58.112-23.552-58.112-52.48v-648.96c0-28.86656 26.04544-52.41344 58.112-52.41344h593.15712c32.12288 0 58.112 23.552 58.112 52.48V690.87744c0 28.99456-25.984 52.48-58.112 52.48h-92.86656c-21.63712 0-39.10656 15.80544-39.10656 35.456 0 19.584 17.46944 35.39456 39.04 35.39456h92.928c75.25888 0 136.44288-55.23456 136.44288-123.136v-648.96c0.00512-67.968-61.17888-123.264-136.44288-123.264zM482.11456 161.98656a36.608 36.608 0 0 0-26.112 10.81344L264.12544 363.52a36.608 36.608 0 0 0-0.13312 51.76832l0.13312 0.13312a37.12 37.12 0 0 0 52.28544 0L482.176 250.88l247.04 245.44256a37.12 37.12 0 0 0 52.35712 0 36.54144 36.54144 0 0 0 0.28672-51.68128l-0.28672-0.28672L508.416 172.8a37.62176 37.62176 0 0 0-26.24-10.81344h-0.06144z m34.688 613.30944H505.6 516.80256z m94.39744 103.168H411.32544c-58.24 0-105.472-46.976-105.472-104.77056 0-57.856 47.232-104.832 105.472-104.832h199.87456c58.24 0 105.472 46.976 105.472 104.832 0 57.79456-47.29856 104.77056-105.472 104.77056z m0-73.6a31.34976 31.34976 0 0 0 34.05824-28.40064A31.35488 31.35488 0 0 0 611.2 742.4H411.32544a31.35488 31.35488 0 1 0 0 62.52544h199.87456v-0.06144z"  horiz-adv-x="1024" />

    
    <glyph glyph-name="jixiaokaoping" unicode="&#58894;" d="M916.224 861.696H107.872C48.832 861.696 0.832 816.832 0.832 761.728v-755.488c0-55.04 48-99.968 107.04-99.968h808.352c59.008 0 106.944 44.864 106.944 99.968V761.728c0 55.104-47.936 99.968-106.944 99.968z m40.064-855.456c0-20.64-17.984-37.408-40.064-37.408H107.872c-22.08 0-40.096 16.768-40.096 37.408V761.728c0 20.672 18.016 37.408 40.096 37.408h808.352c22.08 0 40.064-16.768 40.064-37.408v-755.488zM842.848 142.336H181.344a33.472 33.472 0 0 1 0-66.944h661.504a33.472 33.472 0 1 1 0 66.944z m31.968 515.584a18.784 18.784 0 0 1-1.568 5.088 19.04 19.04 0 0 1-3.04 4.992c-2.08 3.36-3.104 4.608-3.392 4.64l-1.472 1.536a22.336 22.336 0 0 1-4.576 3.2c-1.312 0.864-3.328 2.24-6.112 3.328-2.4 0.96-4.576 1.248-6.176 1.472a21.856 21.856 0 0 1-5.76 0.832h-198.432a33.504 33.504 0 0 1 0-66.976h123.328l-224.704-249.632-198.4 183.776-188.096-208.96a33.28 33.28 0 0 1-8.512-24.16 33.504 33.504 0 0 1 33.44-31.776c9.472 0 18.528 4.064 24.864 11.168l142.624 158.4 198.4-183.744 262.016 291.168v-133.216a33.472 33.472 0 0 1 66.944 0l-0.096 221.312c-0.032 2.816-0.704 5.152-1.28 7.552z"  horiz-adv-x="1024" />

    
    <glyph glyph-name="caidan" unicode="&#59264;" d="M383.068024 426.973744l-171.915441 0c-47.39238 0-85.957721 38.533618-85.957721 85.957721l0 171.915441c0 47.39238 38.566364 85.957721 85.957721 85.957721l171.915441 0c47.40773 0 85.957721-38.566364 85.957721-85.957721l0-171.915441C469.025745 465.507362 430.475753 426.973744 383.068024 426.973744L383.068024 426.973744zM426.046884 684.846906c0 23.695678-19.283182 42.97886-42.97886 42.97886l-171.915441 0c-23.680329 0-42.97886-19.283182-42.97886-42.97886l0-171.915441c0-23.712051 19.298532-42.97886 42.97886-42.97886l171.915441 0c23.695678 0 42.97886 19.266809 42.97886 42.97886L426.046884 684.846906 426.046884 684.846906zM383.068024-2.798487l-171.915441 0c-47.39238 0-85.957721 38.518269-85.957721 85.941348l0 171.915441c0 47.39238 38.566364 85.957721 85.957721 85.957721l171.915441 0c47.40773 0 85.957721-38.566364 85.957721-85.957721l0-171.915441C469.025745 35.718759 430.475753-2.798487 383.068024-2.798487L383.068024-2.798487zM426.046884 255.058302c0 23.695678-19.283182 42.97886-42.97886 42.97886l-171.915441 0c-23.680329 0-42.97886-19.283182-42.97886-42.97886l0-171.915441c0-23.712051 19.298532-42.97886 42.97886-42.97886l171.915441 0c23.695678 0 42.97886 19.266809 42.97886 42.97886L426.046884 255.058302 426.046884 255.058302zM877.35664 147.483238c-11.879562 0-21.521153 9.577123-21.521153 21.457708l0 86.117356c0 23.695678-19.283182 42.97886-42.97886 42.97886l-171.915441 0c-23.680329 0-42.97886-19.283182-42.97886-42.97886l0-171.915441c0-23.712051 19.298532-42.97886 42.97886-42.97886l86.117356 0c11.864212 0 21.48943-9.657964 21.48943-21.521153 0-11.83249-9.625218-21.441335-21.48943-21.441335L640.941186-2.798487c-47.39238 0-85.957721 38.518269-85.957721 85.941348l0 171.915441c0 47.39238 38.566364 85.957721 85.957721 85.957721l171.915441 0c47.40773 0 85.957721-38.566364 85.957721-85.957721l0-86.117356C898.814348 157.060361 889.188106 147.483238 877.35664 147.483238L877.35664 147.483238zM812.856627 426.973744l-171.915441 0c-47.39238 0-85.957721 38.533618-85.957721 85.957721l0 171.915441c0 47.39238 38.566364 85.957721 85.957721 85.957721l171.915441 0c47.40773 0 85.957721-38.566364 85.957721-85.957721l0-171.915441C898.814348 465.507362 860.264357 426.973744 812.856627 426.973744L812.856627 426.973744zM855.835488 684.846906c0 23.695678-19.283182 42.97886-42.97886 42.97886l-171.915441 0c-23.680329 0-42.97886-19.283182-42.97886-42.97886l0-171.915441c0-23.712051 19.298532-42.97886 42.97886-42.97886l171.915441 0c23.695678 0 42.97886 19.266809 42.97886 42.97886L855.835488 684.846906 855.835488 684.846906z"  horiz-adv-x="1024" />

    
    <glyph glyph-name="bumenguanli" unicode="&#58990;" d="M977.454545 337.454545h-34.90909v104.727273c0 44.218182-37.236364 81.454545-81.454546 81.454546H546.909091v93.090909H744.727273c25.6 0 46.545455 20.945455 46.545454 46.545454V802.909091c0 25.6-20.945455 46.545455-46.545454 46.545454H279.272727c-25.6 0-46.545455-20.945455-46.545454-46.545454v-139.636364c0-25.6 20.945455-46.545455 46.545454-46.545454h197.818182v-93.090909H162.909091c-44.218182 0-81.454545-37.236364-81.454546-81.454546V337.454545H46.545455c-25.6 0-46.545455-20.945455-46.545455-46.545454v-325.818182c0-25.6 20.945455-46.545455 46.545455-46.545454h139.636363c25.6 0 46.545455 20.945455 46.545455 46.545454V290.909091c0 25.6-20.945455 46.545455-46.545455 46.545454H151.272727v104.727273c0 6.981818 4.654545 11.636364 11.636364 11.636364h314.181818v-116.363637H442.181818c-25.6 0-46.545455-20.945455-46.545454-46.545454v-325.818182c0-25.6 20.945455-46.545455 46.545454-46.545454h139.636364c25.6 0 46.545455 20.945455 46.545454 46.545454V290.909091c0 25.6-20.945455 46.545455-46.545454 46.545454h-34.909091v116.363637H861.090909c6.981818 0 11.636364-4.654545 11.636364-11.636364V337.454545H837.818182c-25.6 0-46.545455-20.945455-46.545455-46.545454v-325.818182c0-25.6 20.945455-46.545455 46.545455-46.545454h139.636363c25.6 0 46.545455 20.945455 46.545455 46.545454V290.909091c0 25.6-20.945455 46.545455-46.545455 46.545454zM162.909091 267.636364v-279.272728H69.818182V267.636364h93.090909z m395.636364 0v-279.272728h-93.09091V267.636364h93.09091zM302.545455 686.545455V779.636364h418.90909v-93.090909H302.545455z m651.636363-698.181819h-93.090909V267.636364h93.090909v-279.272728z"  horiz-adv-x="1024" />

    
    <glyph glyph-name="rizhi" unicode="&#58900;" d="M904 657.5L746.2 811.8c-13.1 13.1-31 20-48.9 20H195.8c-53.7 0-97.1-44.1-97.1-97.8v-700c0-53.7 43.4-97.8 97.1-97.8h631.7c53.7 0 97.8 44.1 97.8 97.8V607.2c0 18.6-8.2 37.2-21.3 50.3zM856.4 34c0-15.8-13.1-28.9-28.9-28.9H195.8c-15.8 0-28.2 13.1-28.2 28.9V734c0 15.8 12.4 28.9 28.2 28.9l454-0.7v-121.9c0-57.2 46.2-103.3 103.3-103.3h103.3v-503z m0 571.8H753.1c-19.3 0-34.4 15.2-34.4 34.4v102l137.8-135v-1.4zM684 420.8H339.5c-19 0-34.4-15.4-34.4-34.4s15.4-34.4 34.4-34.4H684c19 0 34.4 15.4 34.4 34.4S703 420.8 684 420.8zM684 214.1H339.5c-19 0-34.4-15.4-34.4-34.4s15.4-34.4 34.4-34.4H684c19 0 34.4 15.4 34.4 34.4S703 214.1 684 214.1z"  horiz-adv-x="1024" />

    
    <glyph glyph-name="zidianguanli" unicode="&#58911;" d="M939.13787-16.109929h-742.633213a26.057306 26.057306 0 0 0-26.057306 26.057305V869.942694a26.057306 26.057306 0 0 0 26.057306 26.057306h742.633213a26.057306 26.057306 0 0 0 26.057305-26.057306v-859.995318a26.057306 26.057306 0 0 0-26.057305-26.057305z m-716.575908 52.114611h690.518602V843.885389h-690.518602zM836.459056-127.986971H84.86213a26.057306 26.057306 0 0 0-26.057305 26.057305V704.817548a26.057306 26.057306 0 0 0 52.114611 0v-780.689908h725.53962a26.057306 26.057306 0 0 0 0-52.114611zM613.486691 704.817548H288.92992a26.057306 26.057306 0 0 0 0 52.114611h324.556771a26.057306 26.057306 0 0 0 0-52.114611zM821.945137 413.079953H288.92992a26.057306 26.057306 0 0 0 0 52.114612h533.015217a26.057306 26.057306 0 0 0 0-52.114612zM821.945137 121.290244H288.92992a26.057306 26.057306 0 1 0 0 52.114611h533.015217a26.057306 26.057306 0 0 0 0-52.114611z"  horiz-adv-x="1024" />

    
    <glyph glyph-name="yonghu" unicode="&#58983;" d="M882.8-7.5C881.4 152.3 780 287 638.6 340.4c82 43.7 138.1 129.5 138.1 229.1 0 144.2-116.9 261.1-261.1 261.2v0.1c-1.7 0-3.3-0.2-4.9-0.2-1.7 0-3.3 0.2-4.9 0.2l-0.1-0.1c-144.2-0.1-261.1-117-261.1-261.2 0-99.6 56-185.4 138.1-229.1C241.1 287 139.8 152.3 138.3-7.5v-5.2c0.2-9.3 2.1-18.1 2.8-27.4h0.6c1.5-14.4 13.7-25.4 28.2-25.4s26.7 11 28.2 25.4h0.9c-0.8 9.8-2.9 19.2-2.9 29.1 0 84.7 33.6 165.9 93.5 225.8 58.7 58.7 138 92 220.9 93.3 82.9-1.3 162.2-34.5 220.9-93.3 60-59.9 93.6-141.1 93.6-225.8 0-9.9-2-19.3-2.9-29.1h0.9c1.5-14.4 13.7-25.4 28.2-25.4s26.7 11 28.2 25.4h0.6c0.7 9.3 2.6 18.1 2.8 27.4v5.2z m-570.5 577c0 110.6 88.4 200.4 198.3 203 109.9-2.7 198.3-92.4 198.3-203s-88.4-200.4-198.3-203c-110 2.7-198.3 92.4-198.3 203z"  horiz-adv-x="1024" />

    
    <glyph glyph-name="gangwei" unicode="&#58968;" d="M141.730909 526.010182a34.909091 34.909091 0 0 0 34.909091-34.909091v-220.020364a34.909091 34.909091 0 0 0-69.818182 0V491.101091a34.909091 34.909091 0 0 0 34.909091 34.909091zM847.825455 849.454545H233.565091a126.929455 126.929455 0 0 1-126.743273-126.743272v-66.978909a34.909091 34.909091 0 0 1 69.818182 0V722.711273c0 31.371636 25.553455 56.925091 56.925091 56.925091h614.260364c31.371636 0 56.925091-25.553455 56.92509-56.925091v-677.422546c0-31.371636-25.553455-56.925091-56.92509-56.925091H233.565091a57.018182 57.018182 0 0 0-56.925091 56.925091v72.750546a34.443636 34.443636 0 0 1-30.394182 33.978182h83.502546a34.909091 34.909091 0 0 1 0 69.818181H84.340364a34.909091 34.909091 0 0 1 0-69.818181h52.922181a34.536727 34.536727 0 0 1-30.394181-33.978182v-72.750546A126.836364 126.836364 0 0 1 233.565091-81.454545h614.260364a126.929455 126.929455 0 0 1 126.743272 126.743272V722.711273A126.929455 126.929455 0 0 1 847.825455 849.454545zM382.324364 240.314182l87.831272 256.139636-41.611636 112.733091a34.909091 34.909091 0 0 0 32.721455 46.964364h177.943272a34.862545 34.862545 0 0 0 32.721455-46.964364l-41.658182-112.733091 87.831273-256.139636a34.909091 34.909091 0 0 0-13.824-40.494546l-139.636364-91.927272a35.002182 35.002182 0 0 0-39.330909 0.698181L395.170909 200.517818a34.909091 34.909091 0 0 0-12.846545 39.796364z m129.070545 346.065454l20.154182-54.551272h37.422545l20.200728 54.551272h-77.777455z m-54.551273-343.970909l89.320728-63.069091 97.140363 63.953455-74.984727 218.670545h-36.165818l-75.310546-219.554909zM84.340364 532.759273h145.454545a34.909091 34.909091 0 0 1 0 69.818182H84.340364a34.909091 34.909091 0 0 1 0-69.818182z"  horiz-adv-x="1024" />

    
    <glyph glyph-name="jiaoseguanli" unicode="&#58886;" d="M540.444444 355.555556a227.555556 227.555556 0 1 0 0 455.111111 227.555556 227.555556 0 0 0 0-455.111111z m0 56.888888a170.666667 170.666667 0 1 1 0 341.333334 170.666667 170.666667 0 0 1 0-341.333334zM262.599111-62.577778a199.111111 199.111111 0 1 0 0 398.222222 199.111111 199.111111 0 0 0 0-398.222222z m0 56.888889a142.222222 142.222222 0 1 1 0 284.444445 142.222222 142.222222 0 0 1 0-284.444445zM805.774222 13.880889a142.222222 142.222222 0 1 0 0 284.444444 142.222222 142.222222 0 0 0 0-284.444444z m0 56.888889a85.333333 85.333333 0 1 1 0 170.666666 85.333333 85.333333 0 0 1 0-170.666666zM773.688889 265.386667l-48.810667-29.184-99.157333 165.432889 48.810667 29.240888 99.157333-165.489777zM417.393778 429.511111l47.786666-30.833778-85.902222-133.347555-47.786666 30.776889 85.902222 133.404444z"  horiz-adv-x="1024" />

    
    <glyph glyph-name="shezhi" unicode="&#58898;" d="M986.746539 471.536573l-42.140974 42.140974a122.147749 122.147749 0 0 0-36.033586 86.114162v61.073875a122.147749 122.147749 0 0 1-122.147748 122.147748h-61.073875a122.147749 122.147749 0 0 0-86.114162 36.033586L598.316698 859.966414a122.147749 122.147749 0 0 1-172.839065 0l-42.140973-42.140973a122.147749 122.147749 0 0 0-86.114163-36.033586h-61.073874a122.147749 122.147749 0 0 1-122.147749-122.147749v-61.073874a122.147749 122.147749 0 0 0-36.033586-86.114163l-42.140973-42.140973a122.147749 122.147749 0 0 1 0-172.839065l42.140973-42.140973a122.147749 122.147749 0 0 0 36.033586-86.114163v-61.073874a122.147749 122.147749 0 0 1 122.147749-122.147749h61.073874a122.147749 122.147749 0 0 0 86.114163-36.033585l42.140973-42.140974a122.147749 122.147749 0 0 1 172.839065 0l42.140973 42.140974a122.147749 122.147749 0 0 0 86.114163 36.033585h61.073874a122.147749 122.147749 0 0 1 122.147749 122.147749v61.073874a122.147749 122.147749 0 0 0 36.033586 86.114163l42.140973 42.140973a122.147749 122.147749 0 0 1-1.221477 174.060542z m-43.362451-129.476613l-42.140973-42.140974a183.221623 183.221623 0 0 1-53.74501-129.476613v-61.073874a61.073874 61.073874 0 0 0-61.073874-61.073875h-61.073875a183.221623 183.221623 0 0 1-129.476613-53.745009l-42.140973-42.140974a61.073874 61.073874 0 0 0-86.114163 0L428.531327-4.228908a183.221623 183.221623 0 0 1-129.476613 53.74501h-61.073875a61.073874 61.073874 0 0 0-61.073874 61.073874v61.073874A183.221623 183.221623 0 0 1 123.161955 299.918986l-42.140973 42.140974a61.073874 61.073874 0 0 0 0 86.114163L123.161955 468.48288a183.221623 183.221623 0 0 1 53.74501 129.476613v61.073875a61.073874 61.073874 0 0 0 61.073874 61.073874h61.073875A183.221623 183.221623 0 0 1 428.531327 773.852251l42.140973 42.140974a61.073874 61.073874 0 0 0 86.114163 0l40.308757-42.140974a183.221623 183.221623 0 0 1 129.476614-53.745009h61.073874a61.073874 61.073874 0 0 0 61.073875-61.073874v-61.073875A183.221623 183.221623 0 0 1 901.243115 468.48288l42.140973-42.140974a61.073874 61.073874 0 0 0 0-86.114162zM511.591796 599.180971a213.75856 213.75856 0 1 1 213.75856-213.75856 213.75856 213.75856 0 0 1-213.75856 213.75856z m0-366.443246a152.684686 152.684686 0 1 0 152.684686 152.684686 152.684686 152.684686 0 0 0-152.684686-152.684686z"  horiz-adv-x="1026" />

    


  </font>
</defs>
</svg>
